# xmcd CD database file
# Copyright (C) 1997 Ti Kan
# 
# Track frame offsets:
#     150
#     25287
#     47937
#     63662
#     77025
#     100637
#     125662
#     140937
# 
# Disc length: 2152 seconds
# 
# Revision: 0
# Processed by: cddbd v1.4b41PL1 Copyright (c) Steve Scherf et al.
# Submitted via: DiscPlay 4.0.0
# 
DISCID=74086608
DTITLE=Nina Simone - Nina`s Back
DYEAR=1900
DGENRE=
TTITLE0=It`s cold here
TTITLE1=Porgy
TTITLE2=I Sing just to know I`m alive
TTITLE3=For a while
TTITLE4=Fodder on her Wings
TTITLE5=Touching and Caring
TTITLE6=Saratoga
TTITLE7=You must have another Lover
EXTD=
EXTT0=
EXTT1=
EXTT2=
EXTT3=
EXTT4=
EXTT5=
EXTT6=
EXTT7=
PLAYORDER=
